<svg xmlns="http://www.w3.org/2000/svg" xmlns:xlink="http://www.w3.org/1999/xlink" version="1.1" width="100" height="40" viewBox="0 0 100 40" xml:space="preserve">
<desc>Created with Fabric.js 3.5.0</desc>
<defs>
</defs>
<rect x="0" y="0" width="100%" height="100%" fill="rgba(255,255,255,0)"/>
<g transform="matrix(1 0 0 1 23.2572 20)" style="" id="758492">
		
<path xml:space="preserve" font-family="Acme" font-size="17" font-style="normal" font-weight="normal" style="stroke: none; stroke-width: 1; stroke-dasharray: none; stroke-linecap: butt; stroke-dashoffset: 0; stroke-linejoin: miter; stroke-miterlimit: 4; is-custom-font: none; font-file-url: none; fill: rgb(0,0,0); fill-rule: nonzero; opacity: 1; white-space: pre;" d="M-10.79 5.53L-10.79 5.53Q-12.67 5.53-13.97 3.95Q-15.26 2.37-15.26 0.07L-15.26 0.07Q-15.26-2.73-13.70-4.66Q-12.15-6.58-9.89-6.58L-9.89-6.58Q-9.00-6.58-8.24-6.40Q-7.49-6.22-7.17-6.03L-7.17-6.03L-6.86-5.85L-8.02-3.48Q-8.41-3.82-9.12-4.12Q-9.83-4.42-10.41-4.42L-10.41-4.42Q-11.59-4.42-12.29-3.45Q-13.00-2.48-13.00-0.69Q-13.00 1.11-12.27 2.25Q-11.53 3.40-10.28 3.40L-10.28 3.40Q-9.46 3.40-8.80 2.89Q-8.13 2.38-7.86 1.53L-7.86 1.53L-6.45 2.35Q-7.01 3.84-8.17 4.69Q-9.32 5.53-10.79 5.53ZM-5.60-2.87L-5.60-2.87L-3.54-3.31Q-3.39-2.00-3.34-0.83L-3.34-0.83Q-1.79-3.23-0.43-3.23L-0.43-3.23L-0.62-0.58Q-1.61-0.58-2.18-0.40Q-2.75-0.22-3.34 0.31L-3.34 0.31L-3.34 0.92L-3.15 4.92L-5.43 5.34L-5.23 1.21Q-5.30-1.07-5.60-2.87ZM3.70 3.61L3.70 3.61Q4.19 3.61 4.73 3.35Q5.28 3.10 5.58 2.84L5.58 2.84L5.89 2.59L6.67 3.54Q6.50 3.83 6.15 4.20Q5.79 4.58 5.42 4.84Q5.06 5.10 4.45 5.31Q3.85 5.53 3.20 5.53L3.20 5.53Q1.83 5.53 0.96 4.48Q0.09 3.44 0.09 1.79L0.09 1.79Q0.09-0.29 1.30-1.85Q2.51-3.41 4.12-3.41L4.12-3.41Q5.36-3.41 6.05-2.72Q6.74-2.02 6.74-0.76L6.74-0.76Q6.74-0.01 6.49 0.94L6.49 0.94L6.15 1.29L1.90 1.69Q2.18 3.61 3.70 3.61ZM3.70-1.66L3.70-1.66Q2.95-1.66 2.44-1.06Q1.93-0.46 1.84 0.48L1.84 0.48L4.73 0.12Q4.79-0.27 4.79-0.52L4.79-0.52Q4.79-1.66 3.70-1.66ZM12.71 3.67L12.71 3.67Q11.38 5.34 10.41 5.34L10.41 5.34Q9.21 5.34 8.43 4.35Q7.66 3.37 7.66 1.82L7.66 1.82Q7.66-0.30 8.84-1.77Q10.02-3.23 11.74-3.23L11.74-3.23L12.69-3.09L12.69-3.41L12.49-7.39L14.82-7.82L14.59 0.92L14.59 2.42Q14.59 3.44 15.10 4.76L15.10 4.76L13.27 5.53Q12.78 4.51 12.71 3.67ZM9.56 0.94Q9.56 2.03 9.96 2.64Q10.36 3.25 11.12 3.25Q11.87 3.25 12.69 2.64L12.69 2.64L12.69-1.03Q11.67-1.24 11.18-1.24L11.18-1.24Q10.41-1.24 9.99-0.69Q9.56-0.15 9.56 0.94Z"/></g>
<g transform="matrix(1 0 0 1 67.7985 20)" style="" id="691172">
		
<path xml:space="preserve" font-family="Lato" font-size="17" font-style="normal" font-weight="bold" style="stroke: none; stroke-width: 1; stroke-dasharray: none; stroke-linecap: butt; stroke-dashoffset: 0; stroke-linejoin: miter; stroke-miterlimit: 4; is-custom-font: none; font-file-url: none; fill: rgb(0,176,255); fill-rule: nonzero; opacity: 1; white-space: pre;" d="M-28.49-6.95L-18.79-6.95L-18.79-5.07L-22.49-5.07L-22.49 5.34L-24.78 5.34L-24.78-5.07L-28.49-5.07L-28.49-6.95ZM-16.72 5.34L-18.82 5.34L-18.82-3.38L-17.59-3.38Q-17.26-3.38-17.14-3.26Q-17.01-3.14-16.97-2.85L-16.97-2.85L-16.84-1.80Q-16.37-2.61-15.74-3.07Q-15.11-3.54-14.33-3.54L-14.33-3.54Q-13.69-3.54-13.26-3.24L-13.26-3.24L-13.53-1.67Q-13.56-1.52-13.64-1.46Q-13.73-1.39-13.87-1.39L-13.87-1.39Q-14.00-1.39-14.22-1.45Q-14.44-1.51-14.81-1.51L-14.81-1.51Q-15.46-1.51-15.93-1.15Q-16.40-0.79-16.72-0.09L-16.72-0.09L-16.72 5.34ZM-5.29-0.17L-5.29 5.34L-6.23 5.34Q-6.53 5.34-6.70 5.25Q-6.87 5.16-6.95 4.89L-6.95 4.89L-7.14 4.27Q-7.47 4.57-7.79 4.79Q-8.11 5.02-8.45 5.17Q-8.79 5.32-9.17 5.40Q-9.56 5.48-10.02 5.48L-10.02 5.48Q-10.58 5.48-11.04 5.33Q-11.51 5.18-11.85 4.88Q-12.18 4.58-12.37 4.14Q-12.56 3.70-12.56 3.11L-12.56 3.11Q-12.56 2.62-12.30 2.14Q-12.04 1.66-11.43 1.27Q-10.83 0.89-9.83 0.63Q-8.82 0.38-7.34 0.34L-7.34 0.34L-7.34-0.17Q-7.34-1.04-7.71-1.46Q-8.08-1.88-8.78-1.88L-8.78-1.88Q-9.29-1.88-9.63-1.77Q-9.97-1.65-10.22-1.50Q-10.47-1.35-10.69-1.23Q-10.90-1.11-11.15-1.11L-11.15-1.11Q-11.37-1.11-11.52-1.22Q-11.67-1.33-11.77-1.49L-11.77-1.49L-12.15-2.17Q-10.64-3.54-8.52-3.54L-8.52-3.54Q-7.75-3.54-7.15-3.29Q-6.55-3.04-6.14-2.59Q-5.72-2.15-5.51-1.53Q-5.29-0.91-5.29-0.17L-5.29-0.17ZM-9.37 4.03L-9.37 4.03Q-9.05 4.03-8.77 3.97Q-8.50 3.91-8.26 3.79Q-8.02 3.67-7.79 3.50Q-7.57 3.33-7.34 3.09L-7.34 3.09L-7.34 1.62Q-8.25 1.66-8.87 1.77Q-9.49 1.89-9.86 2.07Q-10.24 2.25-10.39 2.48Q-10.55 2.72-10.55 3.00L-10.55 3.00Q-10.55 3.56-10.22 3.79Q-9.90 4.03-9.37 4.03ZM3.46-2.30L2.91-1.54Q2.81-1.42 2.72-1.35Q2.63-1.28 2.46-1.28L2.46-1.28Q2.30-1.28 2.15-1.38Q2.00-1.48 1.78-1.60Q1.57-1.72 1.28-1.82Q0.98-1.92 0.55-1.92L0.55-1.92Q-0.00-1.92-0.42-1.72Q-0.83-1.52-1.11-1.15Q-1.39-0.77-1.52-0.24Q-1.66 0.29-1.66 0.96L-1.66 0.96Q-1.66 1.66-1.51 2.20Q-1.36 2.75-1.08 3.12Q-0.80 3.49-0.40 3.68Q-0.00 3.87 0.50 3.87L0.50 3.87Q1.00 3.87 1.31 3.75Q1.62 3.62 1.83 3.47Q2.05 3.33 2.20 3.20Q2.36 3.08 2.56 3.08L2.56 3.08Q2.81 3.08 2.94 3.27L2.94 3.27L3.54 4.04Q3.19 4.45 2.79 4.72Q2.38 5.00 1.94 5.17Q1.50 5.33 1.04 5.40Q0.57 5.47 0.11 5.47L0.11 5.47Q-0.70 5.47-1.41 5.17Q-2.13 4.86-2.66 4.29Q-3.19 3.71-3.50 2.87Q-3.81 2.03-3.81 0.96L-3.81 0.96Q-3.81 0.00-3.53-0.82Q-3.26-1.64-2.72-2.24Q-2.19-2.84-1.40-3.18Q-0.60-3.52 0.42-3.52L0.42-3.52Q1.40-3.52 2.14-3.20Q2.87-2.89 3.46-2.30L3.46-2.30ZM4.91-7.29L7.01-7.29L7.01-0.06L7.40-0.06Q7.61-0.06 7.73-0.12Q7.85-0.18 7.99-0.34L7.99-0.34L10.16-3.02Q10.30-3.19 10.46-3.28Q10.62-3.38 10.89-3.38L10.89-3.38L12.81-3.38L10.10-0.14Q9.95 0.04 9.80 0.19Q9.65 0.33 9.47 0.44L9.47 0.44Q9.65 0.57 9.78 0.74Q9.92 0.91 10.05 1.11L10.05 1.11L12.96 5.34L11.07 5.34Q10.82 5.34 10.65 5.26Q10.48 5.17 10.34 4.97L10.34 4.97L8.12 1.66Q8.00 1.46 7.87 1.40Q7.74 1.35 7.49 1.35L7.49 1.35L7.01 1.35L7.01 5.34L4.91 5.34L4.91-7.29ZM17.36-3.52L17.36-3.52Q18.18-3.52 18.87-3.25Q19.57-2.99 20.07-2.48Q20.57-1.98 20.85-1.24Q21.13-0.51 21.13 0.44L21.13 0.44Q21.13 0.67 21.11 0.83Q21.09 0.99 21.03 1.08Q20.98 1.17 20.88 1.21Q20.79 1.24 20.65 1.24L20.65 1.24L15.26 1.24Q15.35 2.59 15.98 3.22Q16.61 3.84 17.64 3.84L17.64 3.84Q18.15 3.84 18.52 3.73Q18.89 3.61 19.17 3.46Q19.45 3.32 19.65 3.20Q19.86 3.08 20.06 3.08L20.06 3.08Q20.19 3.08 20.28 3.13Q20.37 3.18 20.44 3.27L20.44 3.27L21.05 4.04Q20.70 4.45 20.27 4.72Q19.84 5.00 19.37 5.17Q18.89 5.33 18.41 5.40Q17.92 5.47 17.46 5.47L17.46 5.47Q16.55 5.47 15.77 5.17Q14.98 4.86 14.41 4.27Q13.83 3.68 13.50 2.81Q13.17 1.94 13.17 0.79L13.17 0.79Q13.17-0.10 13.45-0.89Q13.74-1.67 14.28-2.25Q14.82-2.84 15.60-3.18Q16.38-3.52 17.36-3.52ZM17.40-2.01L17.40-2.01Q16.48-2.01 15.96-1.49Q15.44-0.98 15.30-0.02L15.30-0.02L19.24-0.02Q19.24-0.43 19.13-0.79Q19.02-1.15 18.79-1.43Q18.56-1.70 18.21-1.85Q17.87-2.01 17.40-2.01ZM24.94 5.34L22.84 5.34L22.84-3.38L24.07-3.38Q24.39-3.38 24.52-3.26Q24.65-3.14 24.69-2.85L24.69-2.85L24.82-1.80Q25.29-2.61 25.92-3.07Q26.54-3.54 27.33-3.54L27.33-3.54Q27.97-3.54 28.40-3.24L28.40-3.24L28.13-1.67Q28.10-1.52 28.01-1.46Q27.93-1.39 27.79-1.39L27.79-1.39Q27.66-1.39 27.44-1.45Q27.22-1.51 26.85-1.51L26.85-1.51Q26.20-1.51 25.73-1.15Q25.26-0.79 24.94-0.09L24.94-0.09L24.94 5.34Z"/></g>
</svg>